<?xml version="1.0" standalone="no"?>
<!DOCTYPE svg PUBLIC "-//W3C//DTD SVG 20010904//EN"
 "http://www.w3.org/TR/2001/REC-SVG-20010904/DTD/svg10.dtd">
<svg version="1.0" xmlns="http://www.w3.org/2000/svg"
 width="900.000000pt" height="900.000000pt" viewBox="0 0 900.000000 900.000000"
 preserveAspectRatio="xMidYMid meet">
<metadata>
Created by potrace 1.14, written by Peter Selinger 2001-2017
</metadata>
<g transform="translate(0.000000,900.000000) scale(0.100000,-0.100000)"
fill="#000000" stroke="none">
<path d="M3418 7610 c-122 -13 -151 -20 -170 -37 -13 -11 -97 -87 -188 -167
l-165 -147 -85 -167 c-111 -217 -132 -266 -170 -398 -17 -60 -52 -174 -77
-254 -28 -91 -57 -219 -79 -345 -39 -226 -38 -265 11 -425 18 -58 32 -143 44
-270 18 -175 21 -193 71 -335 29 -82 66 -193 82 -245 39 -125 27 -105 221
-366 59 -80 116 -162 126 -182 30 -58 122 -163 203 -233 80 -68 157 -179 264
-378 28 -53 104 -181 168 -285 91 -145 125 -210 148 -280 45 -136 80 -206 129
-257 40 -41 49 -62 96 -205 67 -206 68 -213 42 -296 -18 -56 -20 -78 -13 -116
8 -42 12 -47 39 -50 17 -2 35 -8 41 -13 14 -11 48 -126 70 -234 21 -103 26
-113 61 -108 28 5 30 2 53 -72 23 -73 40 -95 74 -95 9 0 18 11 22 25 6 23 10
25 40 19 33 -6 33 -6 48 47 9 30 27 126 41 214 14 88 39 198 54 245 16 47 36
123 46 170 9 47 34 138 56 202 50 152 212 528 297 692 65 125 70 132 189 243
67 63 170 152 230 197 59 45 144 110 187 145 44 34 112 85 152 112 102 69 235
238 380 484 61 104 158 264 214 355 118 189 116 186 203 382 51 115 72 178 96
285 62 288 72 363 78 633 8 342 0 390 -112 685 -45 121 -93 248 -105 283 -16
44 -33 71 -56 89 -19 14 -43 40 -54 59 -12 18 -44 51 -72 74 -43 34 -84 51
-268 111 -135 43 -237 71 -267 71 -26 1 -154 -17 -283 -40 -286 -51 -358 -78
-542 -208 -68 -48 -137 -93 -154 -100 -17 -7 -58 -36 -90 -64 -33 -27 -82 -62
-111 -77 -62 -33 -55 -37 -160 100 -76 99 -111 136 -195 203 -48 37 -71 44
-61 17 6 -16 5 -16 -10 -5 -8 8 -14 19 -11 26 3 7 -21 28 -57 51 -34 20 -96
63 -138 94 -177 132 -326 168 -583 141z m286 -122 c16 -26 5 -29 -49 -12 -74
22 -81 36 -16 32 38 -2 57 -8 65 -20z m121 -48 c3 -5 2 -10 -4 -10 -5 0 -13 5
-16 10 -3 6 -2 10 4 10 5 0 13 -4 16 -10z m2469 -211 c23 -18 36 -49 21 -49
-13 0 -57 34 -66 51 -14 26 11 25 45 -2z m96 -80 c0 -18 -35 -5 -38 14 -3 16
-1 17 17 7 12 -6 21 -15 21 -21z m-2730 -40 c41 -11 134 -51 205 -88 72 -38
151 -76 178 -86 29 -11 95 -57 171 -120 108 -90 129 -112 164 -177 22 -40 53
-118 68 -173 19 -71 35 -109 55 -130 48 -52 119 -168 119 -195 0 -16 11 -37
29 -54 23 -22 29 -39 35 -88 4 -43 13 -69 31 -92 80 -98 99 -131 103 -184 3
-40 8 -52 18 -48 17 6 18 -8 4 -35 -16 -29 63 -129 101 -129 40 0 41 27 8 137
-41 135 -59 213 -49 213 5 0 21 -5 35 -12 24 -11 29 -9 44 11 17 23 17 26 -26
130 -24 58 -91 201 -147 316 -73 147 -105 224 -109 257 -4 44 -2 48 37 85 129
123 239 196 436 292 130 63 165 76 217 79 53 4 69 1 105 -21 24 -13 61 -35 83
-47 208 -115 243 -139 326 -218 49 -46 89 -91 89 -98 0 -8 9 -14 21 -14 12 0
17 -4 13 -11 -3 -6 9 -27 28 -47 54 -57 98 -198 133 -419 6 -39 5 -43 -13 -43
-17 0 -21 -8 -24 -57 -4 -56 4 -83 25 -83 5 0 7 14 4 35 -3 19 -2 37 3 40 16
10 19 -43 9 -160 -8 -98 -18 -144 -54 -252 -25 -73 -45 -145 -45 -161 0 -39
-28 -116 -88 -242 -27 -58 -55 -124 -62 -147 -8 -24 -20 -43 -31 -46 -12 -3
-16 -11 -12 -25 3 -14 -13 -43 -54 -96 -32 -41 -87 -117 -123 -168 -42 -60
-127 -155 -241 -269 -97 -97 -205 -207 -239 -245 -104 -114 -304 -389 -542
-744 -307 -458 -326 -484 -350 -493 -33 -12 -43 -3 -67 60 -33 85 -70 154
-204 378 -195 326 -401 618 -661 935 -164 200 -251 344 -311 515 -42 122 -46
139 -55 285 -5 85 -17 275 -27 423 -14 218 -15 282 -5 345 6 42 19 124 27 182
8 58 22 152 31 210 8 58 30 171 48 252 l34 147 103 117 c61 69 149 154 214
206 60 48 110 88 110 88 0 0 34 -9 75 -21z m1945 -29 c-3 -5 -10 -10 -16 -10
-5 0 -9 5 -9 10 0 6 7 10 16 10 8 0 12 -4 9 -10z m638 -202 c49 -65 82 -148
59 -148 -10 0 -102 151 -102 168 0 21 18 13 43 -20z m165 -35 c11 -16 23 -39
27 -53 4 -14 12 -31 17 -37 7 -9 7 -13 0 -13 -10 0 -62 78 -75 113 -10 26 9
20 31 -10z m-75 -157 c9 -7 17 -21 17 -31 0 -10 9 -38 20 -61 22 -44 62 -234
50 -234 -11 0 -43 79 -84 207 -45 141 -45 151 -3 119z m336 -813 c-5 -37 -8
-78 -8 -90 -1 -13 -6 -23 -12 -23 -11 0 -9 46 7 153 10 65 20 31 13 -40z m-48
-298 c-11 -54 -25 -103 -32 -109 -8 -8 -10 -6 -6 9 4 11 11 47 16 81 12 80 33
153 38 133 2 -9 -5 -60 -16 -114z m-321 18 c-38 -177 -43 -193 -56 -193 -8 0
-14 -10 -14 -22 0 -29 -36 -108 -48 -108 -11 0 1 74 24 145 45 137 77 215 89
215 10 0 11 -9 5 -37z m250 -283 c0 -5 -4 -10 -10 -10 -5 0 -10 5 -10 10 0 6
5 10 10 10 6 0 10 -4 10 -10z m-130 -84 c0 -13 -16 -70 -36 -127 -57 -164
-134 -302 -134 -241 0 30 71 243 108 325 32 69 62 90 62 43z m-640 -651 c-7
-9 -15 -13 -18 -10 -3 2 1 11 8 20 7 9 15 13 18 10 3 -2 -1 -11 -8 -20z m215
-240 c-26 -37 -49 -64 -52 -61 -3 3 16 35 42 71 26 37 49 64 52 61 3 -3 -16
-35 -42 -71z m-300 -170 c-80 -117 -301 -359 -336 -368 -11 -3 -19 -1 -17 4 8
24 382 441 386 430 2 -7 -12 -37 -33 -66z m-507 -325 c-13 -20 -28 -27 -28
-12 0 10 22 32 32 32 5 0 3 -9 -4 -20z m-414 -585 c3 -8 1 -15 -4 -15 -6 0
-10 7 -10 15 0 8 2 15 4 15 2 0 6 -7 10 -15z m-267 -647 c-3 -7 -5 -2 -5 12 0
14 2 19 5 13 2 -7 2 -19 0 -25z"/>
<path d="M5020 6340 c0 -5 7 -10 16 -10 8 0 12 5 9 10 -3 6 -10 10 -16 10 -5
0 -9 -4 -9 -10z"/>
<path d="M6140 6200 c0 -5 5 -10 10 -10 6 0 10 5 10 10 0 6 -4 10 -10 10 -5 0
-10 -4 -10 -10z"/>
</g>
</svg>
